# xmcd
#
# Track frame offsets:
#	150
#	17215
#	31805
#	49435
#	65745
#	79922
#	93783
#	109551
#	129243
#	144844
#	163245
#	181831
#	199369
#
# Disc length: 2858 seconds
#
# Revision: 1
# Processed by: cddbd v1.5.1PL0 Copyright (c) Steve Scherf et al.
# Submitted via: audiograbber 1.83.01
#
DISCID=ad0b280d
DTITLE=ваяа беяа - упопта цуямас
DYEAR=2005
DGENRE=памгцуияиотийа
TTITLE0=упопта цуямас
TTITLE1=дуо ацапес дуо фглиес
TTITLE2=дайяуса циа сема
TTITLE3=стака стака то потгяи
TTITLE4=викиа тяиамтажукка
TTITLE5=лецако кахос ейама
TTITLE6=де ле айоусес йаядиа лоу
TTITLE7=паки апоье ха та пиы
TTITLE8=еисаи еяытас лецакос
TTITLE9=поиос йаглос
TTITLE10=паье паье
TTITLE11=отам с' евы ацйакиа лоу
TTITLE12=етси се хекы етси
EXTD=
EXTT0=
EXTT1=
EXTT2=
EXTT3=
EXTT4=
EXTT5=
EXTT6=
EXTT7=
EXTT8=
EXTT9=
EXTT10=
EXTT11=
EXTT12=
PLAYORDER=
